<mxfile host="app.diagrams.net" agent="Mozilla/5.0 (Windows NT 10.0; Win64; x64) AppleWebKit/537.36 (KHTML, like Gecko) Chrome/136.0.0.0 Safari/537.36" version="27.0.9">
  <diagram name="Page-1" id="0XVHiXSW4DgZh2SgazrS">
    <mxGraphModel dx="1601" dy="778" grid="1" gridSize="10" guides="1" tooltips="1" connect="1" arrows="1" fold="1" page="1" pageScale="1" pageWidth="850" pageHeight="1100" math="0" shadow="0">
      <root>
        <mxCell id="0" />
        <mxCell id="1" parent="0" />
        <mxCell id="okAP-ssUIfYmEC2TWLkl-122" value="ESC" style="rounded=0;whiteSpace=wrap;html=1;" parent="1" vertex="1">
          <mxGeometry x="410" y="375" width="120" height="60" as="geometry" />
        </mxCell>
        <mxCell id="okAP-ssUIfYmEC2TWLkl-123" value="Servo" style="rounded=0;whiteSpace=wrap;html=1;" parent="1" vertex="1">
          <mxGeometry x="460" y="200" width="120" height="60" as="geometry" />
        </mxCell>
        <mxCell id="tiAQXEZwTT6LxylF__0E-4" value="" style="endArrow=none;html=1;rounded=0;exitX=1;exitY=0.5;exitDx=0;exitDy=0;entryX=0;entryY=0.167;entryDx=0;entryDy=0;entryPerimeter=0;strokeColor=#FF0000;" edge="1" parent="1" source="okAP-ssUIfYmEC2TWLkl-15" target="okAP-ssUIfYmEC2TWLkl-123">
          <mxGeometry width="50" height="50" relative="1" as="geometry">
            <mxPoint x="270" y="380" as="sourcePoint" />
            <mxPoint x="320" y="330" as="targetPoint" />
          </mxGeometry>
        </mxCell>
        <mxCell id="okAP-ssUIfYmEC2TWLkl-2" value="" style="rounded=0;whiteSpace=wrap;html=1;rotation=90;" parent="1" vertex="1">
          <mxGeometry x="190" y="280" width="200" height="60" as="geometry" />
        </mxCell>
        <mxCell id="okAP-ssUIfYmEC2TWLkl-13" value="&lt;font style=&quot;font-size: 6px;&quot;&gt;&lt;b&gt;VBUS&lt;/b&gt;&lt;/font&gt;" style="ellipse;whiteSpace=wrap;html=1;aspect=fixed;fillColor=#FF0000;strokeColor=#FF0000;" parent="1" vertex="1">
          <mxGeometry x="310" y="210" width="10" height="10" as="geometry" />
        </mxCell>
        <mxCell id="okAP-ssUIfYmEC2TWLkl-15" value="&lt;font style=&quot;font-size: 6px;&quot;&gt;&lt;b&gt;VSYS&lt;/b&gt;&lt;/font&gt;" style="ellipse;whiteSpace=wrap;html=1;aspect=fixed;fillColor=#FF0000;strokeColor=#FF0000;" parent="1" vertex="1">
          <mxGeometry x="310" y="220" width="10" height="10" as="geometry" />
        </mxCell>
        <mxCell id="okAP-ssUIfYmEC2TWLkl-16" value="&lt;font style=&quot;font-size: 6px;&quot;&gt;&lt;b&gt;3V3_EN&lt;/b&gt;&lt;/font&gt;" style="ellipse;whiteSpace=wrap;html=1;aspect=fixed;fillColor=#FF99CC;strokeColor=#FF99CC;" parent="1" vertex="1">
          <mxGeometry x="310" y="240" width="10" height="10" as="geometry" />
        </mxCell>
        <mxCell id="okAP-ssUIfYmEC2TWLkl-17" value="&lt;font style=&quot;font-size: 6px;&quot;&gt;&lt;b&gt;3V3(OUT)&lt;/b&gt;&lt;/font&gt;" style="ellipse;whiteSpace=wrap;html=1;aspect=fixed;fillColor=#FF0000;strokeColor=#FF0000;" parent="1" vertex="1">
          <mxGeometry x="310" y="250" width="10" height="10" as="geometry" />
        </mxCell>
        <mxCell id="okAP-ssUIfYmEC2TWLkl-18" value="&lt;font style=&quot;font-size: 6px;&quot;&gt;&lt;b&gt;ADC_VREF&lt;/b&gt;&lt;/font&gt;" style="ellipse;whiteSpace=wrap;html=1;aspect=fixed;fillColor=#336600;strokeColor=#336600;" parent="1" vertex="1">
          <mxGeometry x="310" y="260" width="10" height="10" as="geometry" />
        </mxCell>
        <mxCell id="okAP-ssUIfYmEC2TWLkl-19" value="&lt;font style=&quot;font-size: 6px;&quot;&gt;28&lt;/font&gt;" style="ellipse;whiteSpace=wrap;html=1;aspect=fixed;fillColor=#28FF10;" parent="1" vertex="1">
          <mxGeometry x="310" y="270" width="10" height="10" as="geometry" />
        </mxCell>
        <mxCell id="okAP-ssUIfYmEC2TWLkl-20" value="&lt;font style=&quot;font-size: 6px;&quot;&gt;27&lt;/font&gt;" style="ellipse;whiteSpace=wrap;html=1;aspect=fixed;fillColor=#28FF10;" parent="1" vertex="1">
          <mxGeometry x="310" y="290" width="10" height="10" as="geometry" />
        </mxCell>
        <mxCell id="okAP-ssUIfYmEC2TWLkl-21" value="&lt;font style=&quot;font-size: 6px;&quot;&gt;26&lt;/font&gt;" style="ellipse;whiteSpace=wrap;html=1;aspect=fixed;fillColor=#28FF10;" parent="1" vertex="1">
          <mxGeometry x="310" y="300" width="10" height="10" as="geometry" />
        </mxCell>
        <mxCell id="okAP-ssUIfYmEC2TWLkl-22" value="&lt;font style=&quot;font-size: 6px;&quot;&gt;&lt;b&gt;RUN&lt;/b&gt;&lt;/font&gt;" style="ellipse;whiteSpace=wrap;html=1;aspect=fixed;fillColor=#FF99CC;strokeColor=#FF99CC;" parent="1" vertex="1">
          <mxGeometry x="310" y="310" width="10" height="10" as="geometry" />
        </mxCell>
        <mxCell id="okAP-ssUIfYmEC2TWLkl-23" value="&lt;font style=&quot;font-size: 6px;&quot;&gt;22&lt;/font&gt;" style="ellipse;whiteSpace=wrap;html=1;aspect=fixed;fillColor=#28FF10;" parent="1" vertex="1">
          <mxGeometry x="310" y="320" width="10" height="10" as="geometry" />
        </mxCell>
        <mxCell id="okAP-ssUIfYmEC2TWLkl-24" value="" style="ellipse;whiteSpace=wrap;html=1;aspect=fixed;fillColor=#000000;" parent="1" vertex="1">
          <mxGeometry x="310" y="330" width="10" height="10" as="geometry" />
        </mxCell>
        <mxCell id="okAP-ssUIfYmEC2TWLkl-25" value="&lt;font style=&quot;font-size: 6px;&quot;&gt;21&lt;/font&gt;" style="ellipse;whiteSpace=wrap;html=1;aspect=fixed;fillColor=#28FF10;" parent="1" vertex="1">
          <mxGeometry x="310" y="340" width="10" height="10" as="geometry" />
        </mxCell>
        <mxCell id="okAP-ssUIfYmEC2TWLkl-26" value="&lt;font style=&quot;font-size: 6px;&quot;&gt;20&lt;/font&gt;" style="ellipse;whiteSpace=wrap;html=1;aspect=fixed;fillColor=#28FF10;" parent="1" vertex="1">
          <mxGeometry x="310" y="350" width="10" height="10" as="geometry" />
        </mxCell>
        <mxCell id="okAP-ssUIfYmEC2TWLkl-27" value="&lt;font style=&quot;font-size: 6px;&quot;&gt;19&lt;/font&gt;" style="ellipse;whiteSpace=wrap;html=1;aspect=fixed;fillColor=#28FF10;" parent="1" vertex="1">
          <mxGeometry x="310" y="360" width="10" height="10" as="geometry" />
        </mxCell>
        <mxCell id="okAP-ssUIfYmEC2TWLkl-28" value="&lt;font style=&quot;font-size: 6px;&quot;&gt;18&lt;/font&gt;" style="ellipse;whiteSpace=wrap;html=1;aspect=fixed;fillColor=#28FF10;" parent="1" vertex="1">
          <mxGeometry x="310" y="370" width="10" height="10" as="geometry" />
        </mxCell>
        <mxCell id="okAP-ssUIfYmEC2TWLkl-29" value="" style="ellipse;whiteSpace=wrap;html=1;aspect=fixed;fillColor=#000000;" parent="1" vertex="1">
          <mxGeometry x="310" y="380" width="10" height="10" as="geometry" />
        </mxCell>
        <mxCell id="okAP-ssUIfYmEC2TWLkl-32" value="&lt;font style=&quot;font-size: 6px;&quot;&gt;17&lt;/font&gt;" style="ellipse;whiteSpace=wrap;html=1;aspect=fixed;fillColor=#28FF10;" parent="1" vertex="1">
          <mxGeometry x="310" y="390" width="10" height="10" as="geometry" />
        </mxCell>
        <mxCell id="okAP-ssUIfYmEC2TWLkl-33" value="&lt;font style=&quot;font-size: 6px;&quot;&gt;16&lt;/font&gt;" style="ellipse;whiteSpace=wrap;html=1;aspect=fixed;fillColor=#28FF10;" parent="1" vertex="1">
          <mxGeometry x="310" y="400" width="10" height="10" as="geometry" />
        </mxCell>
        <mxCell id="okAP-ssUIfYmEC2TWLkl-37" value="&lt;font style=&quot;font-size: 9px;&quot;&gt;0&lt;/font&gt;" style="ellipse;whiteSpace=wrap;html=1;aspect=fixed;fillColor=#28FF10;" parent="1" vertex="1">
          <mxGeometry x="260" y="210" width="10" height="10" as="geometry" />
        </mxCell>
        <mxCell id="okAP-ssUIfYmEC2TWLkl-38" value="&lt;font style=&quot;font-size: 9px;&quot;&gt;1&lt;/font&gt;" style="ellipse;whiteSpace=wrap;html=1;aspect=fixed;fillColor=#28FF10;" parent="1" vertex="1">
          <mxGeometry x="260" y="220" width="10" height="10" as="geometry" />
        </mxCell>
        <mxCell id="okAP-ssUIfYmEC2TWLkl-39" value="" style="ellipse;whiteSpace=wrap;html=1;aspect=fixed;fillColor=#000000;" parent="1" vertex="1">
          <mxGeometry x="260" y="230" width="10" height="10" as="geometry" />
        </mxCell>
        <mxCell id="okAP-ssUIfYmEC2TWLkl-40" value="&lt;font style=&quot;font-size: 9px;&quot;&gt;2&lt;/font&gt;" style="ellipse;whiteSpace=wrap;html=1;aspect=fixed;fillColor=#28FF10;" parent="1" vertex="1">
          <mxGeometry x="260" y="240" width="10" height="10" as="geometry" />
        </mxCell>
        <mxCell id="okAP-ssUIfYmEC2TWLkl-41" value="&lt;font style=&quot;font-size: 9px;&quot;&gt;4&lt;/font&gt;" style="ellipse;whiteSpace=wrap;html=1;aspect=fixed;fillColor=#28FF10;" parent="1" vertex="1">
          <mxGeometry x="260" y="260" width="10" height="10" as="geometry" />
        </mxCell>
        <mxCell id="okAP-ssUIfYmEC2TWLkl-42" value="&lt;font style=&quot;font-size: 9px;&quot;&gt;5&lt;/font&gt;" style="ellipse;whiteSpace=wrap;html=1;aspect=fixed;fillColor=#28FF10;" parent="1" vertex="1">
          <mxGeometry x="260" y="270" width="10" height="10" as="geometry" />
        </mxCell>
        <mxCell id="okAP-ssUIfYmEC2TWLkl-43" value="" style="ellipse;whiteSpace=wrap;html=1;aspect=fixed;fillColor=#000000;" parent="1" vertex="1">
          <mxGeometry x="260" y="280" width="10" height="10" as="geometry" />
        </mxCell>
        <mxCell id="okAP-ssUIfYmEC2TWLkl-44" value="&lt;font style=&quot;font-size: 9px;&quot;&gt;6&lt;/font&gt;" style="ellipse;whiteSpace=wrap;html=1;aspect=fixed;fillColor=#28FF10;" parent="1" vertex="1">
          <mxGeometry x="260" y="290" width="10" height="10" as="geometry" />
        </mxCell>
        <mxCell id="okAP-ssUIfYmEC2TWLkl-45" value="&lt;font style=&quot;font-size: 9px;&quot;&gt;7&lt;/font&gt;" style="ellipse;whiteSpace=wrap;html=1;aspect=fixed;fillColor=#28FF10;" parent="1" vertex="1">
          <mxGeometry x="260" y="300" width="10" height="10" as="geometry" />
        </mxCell>
        <mxCell id="okAP-ssUIfYmEC2TWLkl-46" value="&lt;font style=&quot;font-size: 9px;&quot;&gt;8&lt;/font&gt;" style="ellipse;whiteSpace=wrap;html=1;aspect=fixed;fillColor=#28FF10;" parent="1" vertex="1">
          <mxGeometry x="260" y="310" width="10" height="10" as="geometry" />
        </mxCell>
        <mxCell id="okAP-ssUIfYmEC2TWLkl-47" value="&lt;font style=&quot;font-size: 9px;&quot;&gt;9&lt;/font&gt;" style="ellipse;whiteSpace=wrap;html=1;aspect=fixed;fillColor=#28FF10;" parent="1" vertex="1">
          <mxGeometry x="260" y="320" width="10" height="10" as="geometry" />
        </mxCell>
        <mxCell id="okAP-ssUIfYmEC2TWLkl-48" value="" style="ellipse;whiteSpace=wrap;html=1;aspect=fixed;fillColor=#000000;" parent="1" vertex="1">
          <mxGeometry x="260" y="330" width="10" height="10" as="geometry" />
        </mxCell>
        <mxCell id="okAP-ssUIfYmEC2TWLkl-49" value="&lt;font style=&quot;font-size: 9px;&quot;&gt;10&lt;/font&gt;" style="ellipse;whiteSpace=wrap;html=1;aspect=fixed;fillColor=#28FF10;" parent="1" vertex="1">
          <mxGeometry x="260" y="340" width="10" height="10" as="geometry" />
        </mxCell>
        <mxCell id="okAP-ssUIfYmEC2TWLkl-50" value="&lt;font style=&quot;font-size: 9px;&quot;&gt;11&lt;/font&gt;" style="ellipse;whiteSpace=wrap;html=1;aspect=fixed;fillColor=#28FF10;" parent="1" vertex="1">
          <mxGeometry x="260" y="350" width="10" height="10" as="geometry" />
        </mxCell>
        <mxCell id="okAP-ssUIfYmEC2TWLkl-51" value="&lt;font style=&quot;font-size: 8px;&quot;&gt;12&lt;/font&gt;" style="ellipse;whiteSpace=wrap;html=1;aspect=fixed;fillColor=#28FF10;" parent="1" vertex="1">
          <mxGeometry x="260" y="360" width="10" height="10" as="geometry" />
        </mxCell>
        <mxCell id="okAP-ssUIfYmEC2TWLkl-52" value="&lt;font style=&quot;font-size: 8px;&quot;&gt;13&lt;/font&gt;" style="ellipse;whiteSpace=wrap;html=1;aspect=fixed;fillColor=#28FF10;" parent="1" vertex="1">
          <mxGeometry x="260" y="370" width="10" height="10" as="geometry" />
        </mxCell>
        <mxCell id="okAP-ssUIfYmEC2TWLkl-53" value="" style="ellipse;whiteSpace=wrap;html=1;aspect=fixed;fillColor=#000000;" parent="1" vertex="1">
          <mxGeometry x="260" y="380" width="10" height="10" as="geometry" />
        </mxCell>
        <mxCell id="okAP-ssUIfYmEC2TWLkl-54" value="&lt;font style=&quot;font-size: 8px;&quot;&gt;14&lt;/font&gt;" style="ellipse;whiteSpace=wrap;html=1;aspect=fixed;fillColor=#28FF10;" parent="1" vertex="1">
          <mxGeometry x="260" y="390" width="10" height="10" as="geometry" />
        </mxCell>
        <mxCell id="okAP-ssUIfYmEC2TWLkl-55" value="&lt;font style=&quot;font-size: 8px;&quot;&gt;15&lt;/font&gt;" style="ellipse;whiteSpace=wrap;html=1;aspect=fixed;fillColor=#28FF10;" parent="1" vertex="1">
          <mxGeometry x="260" y="400" width="10" height="10" as="geometry" />
        </mxCell>
        <mxCell id="okAP-ssUIfYmEC2TWLkl-56" value="&lt;font style=&quot;font-size: 9px;&quot;&gt;3&lt;/font&gt;" style="ellipse;whiteSpace=wrap;html=1;aspect=fixed;fillColor=#28FF10;" parent="1" vertex="1">
          <mxGeometry x="260" y="250" width="10" height="10" as="geometry" />
        </mxCell>
        <mxCell id="okAP-ssUIfYmEC2TWLkl-120" value="" style="ellipse;whiteSpace=wrap;html=1;aspect=fixed;fillColor=#000000;" parent="1" vertex="1">
          <mxGeometry x="310" y="230" width="10" height="10" as="geometry" />
        </mxCell>
        <mxCell id="okAP-ssUIfYmEC2TWLkl-121" value="" style="ellipse;whiteSpace=wrap;html=1;aspect=fixed;fillColor=#000000;" parent="1" vertex="1">
          <mxGeometry x="310" y="280" width="10" height="10" as="geometry" />
        </mxCell>
        <mxCell id="tiAQXEZwTT6LxylF__0E-5" value="" style="endArrow=none;html=1;rounded=0;exitX=1;exitY=0.5;exitDx=0;exitDy=0;entryX=0;entryY=0.5;entryDx=0;entryDy=0;" edge="1" parent="1" source="okAP-ssUIfYmEC2TWLkl-120" target="okAP-ssUIfYmEC2TWLkl-123">
          <mxGeometry width="50" height="50" relative="1" as="geometry">
            <mxPoint x="360" y="320" as="sourcePoint" />
            <mxPoint x="410" y="270" as="targetPoint" />
          </mxGeometry>
        </mxCell>
        <mxCell id="tiAQXEZwTT6LxylF__0E-6" value="" style="endArrow=none;html=1;rounded=0;exitX=1;exitY=1;exitDx=0;exitDy=0;entryX=0.062;entryY=0;entryDx=0;entryDy=0;entryPerimeter=0;" edge="1" parent="1" source="okAP-ssUIfYmEC2TWLkl-120" target="okAP-ssUIfYmEC2TWLkl-122">
          <mxGeometry width="50" height="50" relative="1" as="geometry">
            <mxPoint x="360" y="320" as="sourcePoint" />
            <mxPoint x="410" y="270" as="targetPoint" />
          </mxGeometry>
        </mxCell>
        <mxCell id="tiAQXEZwTT6LxylF__0E-7" value="" style="endArrow=none;html=1;rounded=0;exitX=1;exitY=0.5;exitDx=0;exitDy=0;entryX=0;entryY=0.75;entryDx=0;entryDy=0;strokeColor=#28FF10;" edge="1" parent="1" source="okAP-ssUIfYmEC2TWLkl-19" target="okAP-ssUIfYmEC2TWLkl-123">
          <mxGeometry width="50" height="50" relative="1" as="geometry">
            <mxPoint x="360" y="320" as="sourcePoint" />
            <mxPoint x="410" y="270" as="targetPoint" />
          </mxGeometry>
        </mxCell>
        <mxCell id="tiAQXEZwTT6LxylF__0E-8" value="" style="endArrow=none;html=1;rounded=0;exitX=0.42;exitY=0.018;exitDx=0;exitDy=0;entryX=-0.005;entryY=0.17;entryDx=0;entryDy=0;strokeColor=#28FF10;exitPerimeter=0;entryPerimeter=0;" edge="1" parent="1" source="okAP-ssUIfYmEC2TWLkl-2" target="okAP-ssUIfYmEC2TWLkl-122">
          <mxGeometry width="50" height="50" relative="1" as="geometry">
            <mxPoint x="330" y="285" as="sourcePoint" />
            <mxPoint x="470" y="255" as="targetPoint" />
          </mxGeometry>
        </mxCell>
        <mxCell id="tiAQXEZwTT6LxylF__0E-9" value="Battery(7.2V)" style="rounded=0;whiteSpace=wrap;html=1;" vertex="1" parent="1">
          <mxGeometry x="620" y="380" width="170" height="70" as="geometry" />
        </mxCell>
        <mxCell id="tiAQXEZwTT6LxylF__0E-10" value="" style="endArrow=none;html=1;rounded=0;exitX=1;exitY=0.5;exitDx=0;exitDy=0;strokeColor=#FF0000;" edge="1" parent="1" source="okAP-ssUIfYmEC2TWLkl-122" target="tiAQXEZwTT6LxylF__0E-9">
          <mxGeometry width="50" height="50" relative="1" as="geometry">
            <mxPoint x="330" y="235" as="sourcePoint" />
            <mxPoint x="470" y="220" as="targetPoint" />
          </mxGeometry>
        </mxCell>
        <mxCell id="tiAQXEZwTT6LxylF__0E-11" value="Portable Charger or computer" style="rounded=0;whiteSpace=wrap;html=1;" vertex="1" parent="1">
          <mxGeometry x="230" y="100" width="120" height="60" as="geometry" />
        </mxCell>
        <mxCell id="tiAQXEZwTT6LxylF__0E-12" value="" style="endArrow=none;html=1;rounded=0;exitX=0;exitY=0.5;exitDx=0;exitDy=0;entryX=0.5;entryY=1;entryDx=0;entryDy=0;strokeColor=#FF0000;" edge="1" parent="1" source="okAP-ssUIfYmEC2TWLkl-2" target="tiAQXEZwTT6LxylF__0E-11">
          <mxGeometry width="50" height="50" relative="1" as="geometry">
            <mxPoint x="330" y="235" as="sourcePoint" />
            <mxPoint x="470" y="220" as="targetPoint" />
          </mxGeometry>
        </mxCell>
      </root>
    </mxGraphModel>
  </diagram>
</mxfile>
